<?xml version="1.0" encoding="UTF-8"?>
<svg width="30px" height="30px" version="1.1" viewBox="0 0 700 700" xmlns="http://www.w3.org/2000/svg" xmlns:xlink="http://www.w3.org/1999/xlink">
 <g>
  <path d="m532 108.99c0-6.0703-4.9219-10.992-10.992-10.992h-342.02c-0.72266 0-1.4414 0.074219-2.1523 0.21875-0.32031 0.0625-0.61719 0.18359-0.92578 0.27344-0.76562 0.16016-1.4961 0.46484-2.1562 0.89062-0.28906 0.15625-0.58594 0.28516-0.86328 0.46875-1.2031 0.80469-2.2383 1.8398-3.043 3.0469-0.17578 0.26172-0.29297 0.54297-0.44141 0.81641h-0.003906c-0.43359 0.66406-0.73828 1.3984-0.90625 2.1719-0.09375 0.31641-0.21875 0.62109-0.28125 0.95312-0.14453 0.71094-0.21484 1.4297-0.21875 2.1523v342.02c0 6.0703 4.9219 10.992 10.992 10.992 6.0742 0 10.996-4.9219 10.996-10.992v-315.48l280.5 280.5c4.293 4.2812 11.246 4.2773 15.535-0.011719 4.2891-4.2852 4.293-11.238 0.007813-15.531l-280.5-280.5h315.48c6.0703 0 10.992-4.9219 10.992-10.992z"/>
 </g>
</svg>
